# xmcd
#
# Track frame offsets:
# 150
# 21020
# 59939
# 102567
# 137661
# 153481
# 180134
# 192578
# 204497
# 228715
# 263158
#
# Disc length: 3876 seconds
#
# Revision: 0
# Processed by: cddbd v1.5.2PL0 Copyright (c) Steve Scherf et al.
# Submitted via: Audion 3.0.2 (http://www.panic.com/audion/)
#
DISCID=9f0f220b
DTITLE=Compilation - Cinéma Classique
DYEAR=1900
DGENRE=
TTITLE0=Barry Lindon
TTITLE1=Barber
TTITLE2=Platoon
TTITLE3=Elephant man
TTITLE4=Tous les matins du monde
TTITLE5=L'espion qui m'aimait
TTITLE6=Hannah et ses soeurs
TTITLE7=Excalibur
TTITLE8=Apocalyse now
TTITLE9=Amadeus
TTITLE10=La maîtresse du lieutenant français
EXTD=
EXTT0=
EXTT1=
EXTT2=
EXTT3=
EXTT4=
EXTT5=
EXTT6=
EXTT7=
EXTT8=
EXTT9=
EXTT10=
PLAYORDER=
